<svg width="24" height="24" viewBox="0 0 24 24" fill="none" xmlns="http://www.w3.org/2000/svg">
<g clip-path="url(#clip0_521_6840)">
<path d="M10.6948 7.00827H10.7192H13.2832H13.3077C13.7472 7.00827 14.0647 6.69082 14.0647 6.25128V0.756992C14.0647 0.317449 13.7472 0 13.3077 0H13.2832H10.7192H10.6948C10.2553 0 9.93784 0.317449 9.93784 0.756992V6.25128C9.91342 6.71524 10.2309 7.00827 10.6948 7.00827Z" fill="black"/>
<path d="M7.2516 9.93822L7.27602 9.9138L8.86326 7.91144L8.88768 7.88702C9.15629 7.54516 9.10745 7.10561 8.76558 6.81258L4.46783 3.39392C4.12597 3.12531 3.68642 3.17415 3.39339 3.51601L3.36898 3.54043L1.78174 5.54279L1.75732 5.56721C1.48871 5.90908 1.53755 6.34862 1.87942 6.64165L6.17717 10.0603C6.54345 10.3289 6.98299 10.2801 7.2516 9.93822Z" fill="black"/>
<path d="M7.39746 14.4319V14.4074L6.83582 11.9167V11.8923C6.73814 11.4527 6.37186 11.233 5.93232 11.3306L0.584545 12.5516C0.145002 12.6493 -0.0747664 13.0156 0.0229098 13.4551V13.4795L0.584545 15.9703V15.9947C0.682221 16.4342 1.04851 16.654 1.48805 16.5563L6.83582 15.3354C7.27536 15.2377 7.49514 14.8714 7.39746 14.4319Z" fill="black"/>
<path d="M11.0115 17.1174L10.9871 17.0929L8.69168 15.9941L8.66726 15.9697C8.25213 15.7743 7.83701 15.9208 7.66607 16.336L5.29743 21.2686C5.10208 21.6837 5.24859 22.0989 5.66371 22.2698L5.68813 22.2942L7.98352 23.3931L8.00794 23.4175C8.42307 23.6128 8.83819 23.4663 9.00912 23.0512L11.3778 18.1186C11.5487 17.7278 11.4022 17.3127 11.0115 17.1174Z" fill="black"/>
<path d="M15.3576 15.9951L15.3331 16.0195L13.0378 17.1183L13.0133 17.1428C12.5982 17.3381 12.4761 17.7532 12.647 18.1684L15.0401 23.101C15.2355 23.5161 15.6506 23.6382 16.0657 23.4673L16.0901 23.4429L18.3855 22.344L18.4099 22.3196C18.8251 22.1242 18.9472 21.7091 18.7762 21.294L16.3832 16.3613C16.1634 15.9462 15.7483 15.7997 15.3576 15.9951Z" fill="black"/>
<path d="M17.1646 11.868V11.8924L16.603 14.3831V14.4076C16.5053 14.8471 16.7251 15.2134 17.1646 15.3111L22.5124 16.532C22.9519 16.6297 23.3182 16.4099 23.4159 15.9704V15.946L23.9775 13.4552V13.4308C24.0752 12.9913 23.8554 12.625 23.4159 12.5273L18.0681 11.3064C17.653 11.2087 17.2867 11.4284 17.1646 11.868Z" fill="black"/>
<path d="M15.0894 7.88702L15.1138 7.91144L16.701 9.9138L16.7254 9.93822C16.994 10.2801 17.4336 10.3289 17.7999 10.0603L22.0976 6.64165C22.4395 6.37304 22.4883 5.9335 22.2197 5.56721L22.1953 5.54279L20.6081 3.54043L20.5836 3.51601C20.315 3.17415 19.8755 3.12531 19.5092 3.39392L15.2114 6.81258C14.8696 7.10561 14.8207 7.52074 15.0894 7.88702Z" fill="black"/>
</g>
<defs>
<clipPath id="clip0_521_6840">
<rect width="24" height="24" fill="black"/>
</clipPath>
</defs>
</svg>
